<mxfile host="app.diagrams.net" modified="2021-09-30T11:56:26.894Z" agent="5.0 (Windows NT 10.0; Win64; x64) AppleWebKit/537.36 (KHTML, like Gecko) Chrome/93.0.4577.82 Safari/537.36 Edg/93.0.961.52" etag="YiccizREjEvo5x1NzHM1" version="15.3.8" type="github">
  <diagram id="eQh10TJwR0tY9ZzVORW1" name="Page-1">
    <mxGraphModel dx="483" dy="541" grid="1" gridSize="10" guides="1" tooltips="1" connect="1" arrows="1" fold="1" page="1" pageScale="1" pageWidth="827" pageHeight="1169" math="0" shadow="0">
      <root>
        <mxCell id="0" />
        <mxCell id="1" parent="0" />
        <mxCell id="IPrjEO2tcvVb4j5Hi5IT-1" value="&lt;&lt;interface&gt;&gt;&#xa;DAO" style="swimlane;fontStyle=1;align=center;verticalAlign=top;childLayout=stackLayout;horizontal=1;startSize=40;horizontalStack=0;resizeParent=1;resizeParentMax=0;resizeLast=0;collapsible=1;marginBottom=0;" vertex="1" parent="1">
          <mxGeometry x="890" y="50" width="160" height="144" as="geometry" />
        </mxCell>
        <mxCell id="IPrjEO2tcvVb4j5Hi5IT-6" value="+ getById(id : int): T" style="text;strokeColor=none;fillColor=none;align=left;verticalAlign=top;spacingLeft=4;spacingRight=4;overflow=hidden;rotatable=0;points=[[0,0.5],[1,0.5]];portConstraint=eastwest;" vertex="1" parent="IPrjEO2tcvVb4j5Hi5IT-1">
          <mxGeometry y="40" width="160" height="26" as="geometry" />
        </mxCell>
        <mxCell id="IPrjEO2tcvVb4j5Hi5IT-5" value="+ create(objet : T)" style="text;strokeColor=none;fillColor=none;align=left;verticalAlign=top;spacingLeft=4;spacingRight=4;overflow=hidden;rotatable=0;points=[[0,0.5],[1,0.5]];portConstraint=eastwest;" vertex="1" parent="IPrjEO2tcvVb4j5Hi5IT-1">
          <mxGeometry y="66" width="160" height="26" as="geometry" />
        </mxCell>
        <mxCell id="IPrjEO2tcvVb4j5Hi5IT-7" value="+ delete(objet : T)" style="text;strokeColor=none;fillColor=none;align=left;verticalAlign=top;spacingLeft=4;spacingRight=4;overflow=hidden;rotatable=0;points=[[0,0.5],[1,0.5]];portConstraint=eastwest;" vertex="1" parent="IPrjEO2tcvVb4j5Hi5IT-1">
          <mxGeometry y="92" width="160" height="26" as="geometry" />
        </mxCell>
        <mxCell id="IPrjEO2tcvVb4j5Hi5IT-2" value="+ update(objet : T)" style="text;strokeColor=none;fillColor=none;align=left;verticalAlign=top;spacingLeft=4;spacingRight=4;overflow=hidden;rotatable=0;points=[[0,0.5],[1,0.5]];portConstraint=eastwest;" vertex="1" parent="IPrjEO2tcvVb4j5Hi5IT-1">
          <mxGeometry y="118" width="160" height="26" as="geometry" />
        </mxCell>
        <mxCell id="IPrjEO2tcvVb4j5Hi5IT-8" value="MySQLAbonnementDAO" style="swimlane;fontStyle=1;align=center;verticalAlign=top;childLayout=stackLayout;horizontal=1;startSize=26;horizontalStack=0;resizeParent=1;resizeParentMax=0;resizeLast=0;collapsible=1;marginBottom=0;" vertex="1" parent="1">
          <mxGeometry x="40" y="580" width="210" height="34" as="geometry" />
        </mxCell>
        <mxCell id="IPrjEO2tcvVb4j5Hi5IT-10" value="" style="line;strokeWidth=1;fillColor=none;align=left;verticalAlign=middle;spacingTop=-1;spacingLeft=3;spacingRight=3;rotatable=0;labelPosition=right;points=[];portConstraint=eastwest;" vertex="1" parent="IPrjEO2tcvVb4j5Hi5IT-8">
          <mxGeometry y="26" width="210" height="8" as="geometry" />
        </mxCell>
        <mxCell id="IPrjEO2tcvVb4j5Hi5IT-13" value="MySQLRevueDAO" style="swimlane;fontStyle=1;align=center;verticalAlign=top;childLayout=stackLayout;horizontal=1;startSize=26;horizontalStack=0;resizeParent=1;resizeParentMax=0;resizeLast=0;collapsible=1;marginBottom=0;" vertex="1" parent="1">
          <mxGeometry x="960" y="580" width="210" height="34" as="geometry" />
        </mxCell>
        <mxCell id="IPrjEO2tcvVb4j5Hi5IT-14" value="" style="line;strokeWidth=1;fillColor=none;align=left;verticalAlign=middle;spacingTop=-1;spacingLeft=3;spacingRight=3;rotatable=0;labelPosition=right;points=[];portConstraint=eastwest;" vertex="1" parent="IPrjEO2tcvVb4j5Hi5IT-13">
          <mxGeometry y="26" width="210" height="8" as="geometry" />
        </mxCell>
        <mxCell id="IPrjEO2tcvVb4j5Hi5IT-15" value="MySQLPeriodiciteDAO" style="swimlane;fontStyle=1;align=center;verticalAlign=top;childLayout=stackLayout;horizontal=1;startSize=26;horizontalStack=0;resizeParent=1;resizeParentMax=0;resizeLast=0;collapsible=1;marginBottom=0;" vertex="1" parent="1">
          <mxGeometry x="510" y="580" width="210" height="34" as="geometry" />
        </mxCell>
        <mxCell id="IPrjEO2tcvVb4j5Hi5IT-16" value="" style="line;strokeWidth=1;fillColor=none;align=left;verticalAlign=middle;spacingTop=-1;spacingLeft=3;spacingRight=3;rotatable=0;labelPosition=right;points=[];portConstraint=eastwest;" vertex="1" parent="IPrjEO2tcvVb4j5Hi5IT-15">
          <mxGeometry y="26" width="210" height="8" as="geometry" />
        </mxCell>
        <mxCell id="IPrjEO2tcvVb4j5Hi5IT-17" value="MySQLClientDAO" style="swimlane;fontStyle=1;align=center;verticalAlign=top;childLayout=stackLayout;horizontal=1;startSize=26;horizontalStack=0;resizeParent=1;resizeParentMax=0;resizeLast=0;collapsible=1;marginBottom=0;" vertex="1" parent="1">
          <mxGeometry x="1400" y="580" width="210" height="34" as="geometry" />
        </mxCell>
        <mxCell id="IPrjEO2tcvVb4j5Hi5IT-18" value="" style="line;strokeWidth=1;fillColor=none;align=left;verticalAlign=middle;spacingTop=-1;spacingLeft=3;spacingRight=3;rotatable=0;labelPosition=right;points=[];portConstraint=eastwest;" vertex="1" parent="IPrjEO2tcvVb4j5Hi5IT-17">
          <mxGeometry y="26" width="210" height="8" as="geometry" />
        </mxCell>
        <mxCell id="IPrjEO2tcvVb4j5Hi5IT-19" value="" style="endArrow=block;dashed=1;endFill=0;endSize=12;html=1;exitX=0.5;exitY=0;exitDx=0;exitDy=0;entryX=0;entryY=0.5;entryDx=0;entryDy=0;" edge="1" parent="1" source="IPrjEO2tcvVb4j5Hi5IT-8" target="IPrjEO2tcvVb4j5Hi5IT-29">
          <mxGeometry width="160" relative="1" as="geometry">
            <mxPoint x="230" y="560" as="sourcePoint" />
            <mxPoint x="380" y="330" as="targetPoint" />
          </mxGeometry>
        </mxCell>
        <mxCell id="IPrjEO2tcvVb4j5Hi5IT-20" value="" style="endArrow=block;dashed=1;endFill=0;endSize=12;html=1;exitX=0.5;exitY=0;exitDx=0;exitDy=0;entryX=0;entryY=0.5;entryDx=0;entryDy=0;" edge="1" parent="1" source="IPrjEO2tcvVb4j5Hi5IT-17" target="IPrjEO2tcvVb4j5Hi5IT-48">
          <mxGeometry width="160" relative="1" as="geometry">
            <mxPoint x="470" y="640" as="sourcePoint" />
            <mxPoint x="299" y="750" as="targetPoint" />
          </mxGeometry>
        </mxCell>
        <mxCell id="IPrjEO2tcvVb4j5Hi5IT-22" value="" style="endArrow=block;dashed=1;endFill=0;endSize=12;html=1;exitX=0.5;exitY=0;exitDx=0;exitDy=0;entryX=0;entryY=0.5;entryDx=0;entryDy=0;" edge="1" parent="1" source="IPrjEO2tcvVb4j5Hi5IT-15" target="IPrjEO2tcvVb4j5Hi5IT-38">
          <mxGeometry width="160" relative="1" as="geometry">
            <mxPoint x="470" y="640" as="sourcePoint" />
            <mxPoint x="745" y="750" as="targetPoint" />
          </mxGeometry>
        </mxCell>
        <mxCell id="IPrjEO2tcvVb4j5Hi5IT-23" value="" style="endArrow=block;dashed=1;endFill=0;endSize=12;html=1;exitX=0.5;exitY=0;exitDx=0;exitDy=0;entryX=0;entryY=0.5;entryDx=0;entryDy=0;" edge="1" parent="1" source="IPrjEO2tcvVb4j5Hi5IT-13" target="IPrjEO2tcvVb4j5Hi5IT-43">
          <mxGeometry width="160" relative="1" as="geometry">
            <mxPoint x="470" y="640" as="sourcePoint" />
            <mxPoint x="1040" y="700" as="targetPoint" />
          </mxGeometry>
        </mxCell>
        <mxCell id="IPrjEO2tcvVb4j5Hi5IT-25" value="&lt;&lt;interface&gt;&gt;&#xa;AbonnementDAO" style="swimlane;fontStyle=1;align=center;verticalAlign=top;childLayout=stackLayout;horizontal=1;startSize=40;horizontalStack=0;resizeParent=1;resizeParentMax=0;resizeLast=0;collapsible=1;marginBottom=0;" vertex="1" parent="1">
          <mxGeometry x="194" y="370" width="160" height="144" as="geometry" />
        </mxCell>
        <mxCell id="IPrjEO2tcvVb4j5Hi5IT-26" value="+ getById(id : int): T" style="text;strokeColor=none;fillColor=none;align=left;verticalAlign=top;spacingLeft=4;spacingRight=4;overflow=hidden;rotatable=0;points=[[0,0.5],[1,0.5]];portConstraint=eastwest;" vertex="1" parent="IPrjEO2tcvVb4j5Hi5IT-25">
          <mxGeometry y="40" width="160" height="26" as="geometry" />
        </mxCell>
        <mxCell id="IPrjEO2tcvVb4j5Hi5IT-27" value="+ create(objet : T)" style="text;strokeColor=none;fillColor=none;align=left;verticalAlign=top;spacingLeft=4;spacingRight=4;overflow=hidden;rotatable=0;points=[[0,0.5],[1,0.5]];portConstraint=eastwest;" vertex="1" parent="IPrjEO2tcvVb4j5Hi5IT-25">
          <mxGeometry y="66" width="160" height="26" as="geometry" />
        </mxCell>
        <mxCell id="IPrjEO2tcvVb4j5Hi5IT-28" value="+ delete(objet : T)" style="text;strokeColor=none;fillColor=none;align=left;verticalAlign=top;spacingLeft=4;spacingRight=4;overflow=hidden;rotatable=0;points=[[0,0.5],[1,0.5]];portConstraint=eastwest;" vertex="1" parent="IPrjEO2tcvVb4j5Hi5IT-25">
          <mxGeometry y="92" width="160" height="26" as="geometry" />
        </mxCell>
        <mxCell id="IPrjEO2tcvVb4j5Hi5IT-29" value="+ update(objet : T)" style="text;strokeColor=none;fillColor=none;align=left;verticalAlign=top;spacingLeft=4;spacingRight=4;overflow=hidden;rotatable=0;points=[[0,0.5],[1,0.5]];portConstraint=eastwest;" vertex="1" parent="IPrjEO2tcvVb4j5Hi5IT-25">
          <mxGeometry y="118" width="160" height="26" as="geometry" />
        </mxCell>
        <mxCell id="IPrjEO2tcvVb4j5Hi5IT-30" value="Extends" style="endArrow=block;endSize=16;endFill=0;html=1;exitX=0.5;exitY=0;exitDx=0;exitDy=0;entryX=0;entryY=0.5;entryDx=0;entryDy=0;" edge="1" parent="1" source="IPrjEO2tcvVb4j5Hi5IT-25" target="IPrjEO2tcvVb4j5Hi5IT-2">
          <mxGeometry width="160" relative="1" as="geometry">
            <mxPoint x="500" y="430" as="sourcePoint" />
            <mxPoint x="660" y="430" as="targetPoint" />
          </mxGeometry>
        </mxCell>
        <mxCell id="IPrjEO2tcvVb4j5Hi5IT-31" value="ListeMemoireAbonnementDAO" style="swimlane;fontStyle=1;align=center;verticalAlign=top;childLayout=stackLayout;horizontal=1;startSize=26;horizontalStack=0;resizeParent=1;resizeParentMax=0;resizeLast=0;collapsible=1;marginBottom=0;" vertex="1" parent="1">
          <mxGeometry x="275" y="580" width="210" height="34" as="geometry" />
        </mxCell>
        <mxCell id="IPrjEO2tcvVb4j5Hi5IT-32" value="" style="line;strokeWidth=1;fillColor=none;align=left;verticalAlign=middle;spacingTop=-1;spacingLeft=3;spacingRight=3;rotatable=0;labelPosition=right;points=[];portConstraint=eastwest;" vertex="1" parent="IPrjEO2tcvVb4j5Hi5IT-31">
          <mxGeometry y="26" width="210" height="8" as="geometry" />
        </mxCell>
        <mxCell id="IPrjEO2tcvVb4j5Hi5IT-33" value="" style="endArrow=block;dashed=1;endFill=0;endSize=12;html=1;entryX=1;entryY=0.5;entryDx=0;entryDy=0;exitX=0.5;exitY=0;exitDx=0;exitDy=0;" edge="1" parent="1" source="IPrjEO2tcvVb4j5Hi5IT-31" target="IPrjEO2tcvVb4j5Hi5IT-29">
          <mxGeometry width="160" relative="1" as="geometry">
            <mxPoint x="450" y="580" as="sourcePoint" />
            <mxPoint x="309" y="760" as="targetPoint" />
          </mxGeometry>
        </mxCell>
        <mxCell id="IPrjEO2tcvVb4j5Hi5IT-34" value="&lt;&lt;interface&gt;&gt;&#xa;AbonnementDAO" style="swimlane;fontStyle=1;align=center;verticalAlign=top;childLayout=stackLayout;horizontal=1;startSize=40;horizontalStack=0;resizeParent=1;resizeParentMax=0;resizeLast=0;collapsible=1;marginBottom=0;" vertex="1" parent="1">
          <mxGeometry x="650" y="370" width="160" height="144" as="geometry" />
        </mxCell>
        <mxCell id="IPrjEO2tcvVb4j5Hi5IT-35" value="+ getById(id : int): T" style="text;strokeColor=none;fillColor=none;align=left;verticalAlign=top;spacingLeft=4;spacingRight=4;overflow=hidden;rotatable=0;points=[[0,0.5],[1,0.5]];portConstraint=eastwest;" vertex="1" parent="IPrjEO2tcvVb4j5Hi5IT-34">
          <mxGeometry y="40" width="160" height="26" as="geometry" />
        </mxCell>
        <mxCell id="IPrjEO2tcvVb4j5Hi5IT-36" value="+ create(objet : T)" style="text;strokeColor=none;fillColor=none;align=left;verticalAlign=top;spacingLeft=4;spacingRight=4;overflow=hidden;rotatable=0;points=[[0,0.5],[1,0.5]];portConstraint=eastwest;" vertex="1" parent="IPrjEO2tcvVb4j5Hi5IT-34">
          <mxGeometry y="66" width="160" height="26" as="geometry" />
        </mxCell>
        <mxCell id="IPrjEO2tcvVb4j5Hi5IT-37" value="+ delete(objet : T)" style="text;strokeColor=none;fillColor=none;align=left;verticalAlign=top;spacingLeft=4;spacingRight=4;overflow=hidden;rotatable=0;points=[[0,0.5],[1,0.5]];portConstraint=eastwest;" vertex="1" parent="IPrjEO2tcvVb4j5Hi5IT-34">
          <mxGeometry y="92" width="160" height="26" as="geometry" />
        </mxCell>
        <mxCell id="IPrjEO2tcvVb4j5Hi5IT-38" value="+ update(objet : T)" style="text;strokeColor=none;fillColor=none;align=left;verticalAlign=top;spacingLeft=4;spacingRight=4;overflow=hidden;rotatable=0;points=[[0,0.5],[1,0.5]];portConstraint=eastwest;" vertex="1" parent="IPrjEO2tcvVb4j5Hi5IT-34">
          <mxGeometry y="118" width="160" height="26" as="geometry" />
        </mxCell>
        <mxCell id="IPrjEO2tcvVb4j5Hi5IT-39" value="&lt;&lt;interface&gt;&gt;&#xa;AbonnementDAO" style="swimlane;fontStyle=1;align=center;verticalAlign=top;childLayout=stackLayout;horizontal=1;startSize=40;horizontalStack=0;resizeParent=1;resizeParentMax=0;resizeLast=0;collapsible=1;marginBottom=0;" vertex="1" parent="1">
          <mxGeometry x="1090" y="370" width="160" height="144" as="geometry" />
        </mxCell>
        <mxCell id="IPrjEO2tcvVb4j5Hi5IT-40" value="+ getById(id : int): T" style="text;strokeColor=none;fillColor=none;align=left;verticalAlign=top;spacingLeft=4;spacingRight=4;overflow=hidden;rotatable=0;points=[[0,0.5],[1,0.5]];portConstraint=eastwest;" vertex="1" parent="IPrjEO2tcvVb4j5Hi5IT-39">
          <mxGeometry y="40" width="160" height="26" as="geometry" />
        </mxCell>
        <mxCell id="IPrjEO2tcvVb4j5Hi5IT-41" value="+ create(objet : T)" style="text;strokeColor=none;fillColor=none;align=left;verticalAlign=top;spacingLeft=4;spacingRight=4;overflow=hidden;rotatable=0;points=[[0,0.5],[1,0.5]];portConstraint=eastwest;" vertex="1" parent="IPrjEO2tcvVb4j5Hi5IT-39">
          <mxGeometry y="66" width="160" height="26" as="geometry" />
        </mxCell>
        <mxCell id="IPrjEO2tcvVb4j5Hi5IT-42" value="+ delete(objet : T)" style="text;strokeColor=none;fillColor=none;align=left;verticalAlign=top;spacingLeft=4;spacingRight=4;overflow=hidden;rotatable=0;points=[[0,0.5],[1,0.5]];portConstraint=eastwest;" vertex="1" parent="IPrjEO2tcvVb4j5Hi5IT-39">
          <mxGeometry y="92" width="160" height="26" as="geometry" />
        </mxCell>
        <mxCell id="IPrjEO2tcvVb4j5Hi5IT-43" value="+ update(objet : T)" style="text;strokeColor=none;fillColor=none;align=left;verticalAlign=top;spacingLeft=4;spacingRight=4;overflow=hidden;rotatable=0;points=[[0,0.5],[1,0.5]];portConstraint=eastwest;" vertex="1" parent="IPrjEO2tcvVb4j5Hi5IT-39">
          <mxGeometry y="118" width="160" height="26" as="geometry" />
        </mxCell>
        <mxCell id="IPrjEO2tcvVb4j5Hi5IT-44" value="&lt;&lt;interface&gt;&gt;&#xa;AbonnementDAO" style="swimlane;fontStyle=1;align=center;verticalAlign=top;childLayout=stackLayout;horizontal=1;startSize=40;horizontalStack=0;resizeParent=1;resizeParentMax=0;resizeLast=0;collapsible=1;marginBottom=0;" vertex="1" parent="1">
          <mxGeometry x="1550" y="370" width="160" height="144" as="geometry" />
        </mxCell>
        <mxCell id="IPrjEO2tcvVb4j5Hi5IT-45" value="+ getById(id : int): T" style="text;strokeColor=none;fillColor=none;align=left;verticalAlign=top;spacingLeft=4;spacingRight=4;overflow=hidden;rotatable=0;points=[[0,0.5],[1,0.5]];portConstraint=eastwest;" vertex="1" parent="IPrjEO2tcvVb4j5Hi5IT-44">
          <mxGeometry y="40" width="160" height="26" as="geometry" />
        </mxCell>
        <mxCell id="IPrjEO2tcvVb4j5Hi5IT-46" value="+ create(objet : T)" style="text;strokeColor=none;fillColor=none;align=left;verticalAlign=top;spacingLeft=4;spacingRight=4;overflow=hidden;rotatable=0;points=[[0,0.5],[1,0.5]];portConstraint=eastwest;" vertex="1" parent="IPrjEO2tcvVb4j5Hi5IT-44">
          <mxGeometry y="66" width="160" height="26" as="geometry" />
        </mxCell>
        <mxCell id="IPrjEO2tcvVb4j5Hi5IT-47" value="+ delete(objet : T)" style="text;strokeColor=none;fillColor=none;align=left;verticalAlign=top;spacingLeft=4;spacingRight=4;overflow=hidden;rotatable=0;points=[[0,0.5],[1,0.5]];portConstraint=eastwest;" vertex="1" parent="IPrjEO2tcvVb4j5Hi5IT-44">
          <mxGeometry y="92" width="160" height="26" as="geometry" />
        </mxCell>
        <mxCell id="IPrjEO2tcvVb4j5Hi5IT-48" value="+ update(objet : T)" style="text;strokeColor=none;fillColor=none;align=left;verticalAlign=top;spacingLeft=4;spacingRight=4;overflow=hidden;rotatable=0;points=[[0,0.5],[1,0.5]];portConstraint=eastwest;" vertex="1" parent="IPrjEO2tcvVb4j5Hi5IT-44">
          <mxGeometry y="118" width="160" height="26" as="geometry" />
        </mxCell>
        <mxCell id="IPrjEO2tcvVb4j5Hi5IT-49" value="ListeMemoirePeriodiciteDAO" style="swimlane;fontStyle=1;align=center;verticalAlign=top;childLayout=stackLayout;horizontal=1;startSize=26;horizontalStack=0;resizeParent=1;resizeParentMax=0;resizeLast=0;collapsible=1;marginBottom=0;" vertex="1" parent="1">
          <mxGeometry x="740" y="580" width="210" height="34" as="geometry" />
        </mxCell>
        <mxCell id="IPrjEO2tcvVb4j5Hi5IT-50" value="" style="line;strokeWidth=1;fillColor=none;align=left;verticalAlign=middle;spacingTop=-1;spacingLeft=3;spacingRight=3;rotatable=0;labelPosition=right;points=[];portConstraint=eastwest;" vertex="1" parent="IPrjEO2tcvVb4j5Hi5IT-49">
          <mxGeometry y="26" width="210" height="8" as="geometry" />
        </mxCell>
        <mxCell id="IPrjEO2tcvVb4j5Hi5IT-51" value="" style="endArrow=block;dashed=1;endFill=0;endSize=12;html=1;exitX=0.5;exitY=0;exitDx=0;exitDy=0;entryX=1;entryY=0.5;entryDx=0;entryDy=0;" edge="1" parent="1" source="IPrjEO2tcvVb4j5Hi5IT-55" target="IPrjEO2tcvVb4j5Hi5IT-43">
          <mxGeometry width="160" relative="1" as="geometry">
            <mxPoint x="1145" y="590" as="sourcePoint" />
            <mxPoint x="1100" y="501" as="targetPoint" />
          </mxGeometry>
        </mxCell>
        <mxCell id="IPrjEO2tcvVb4j5Hi5IT-52" value="" style="endArrow=block;dashed=1;endFill=0;endSize=12;html=1;exitX=0.5;exitY=0;exitDx=0;exitDy=0;entryX=1;entryY=0.5;entryDx=0;entryDy=0;" edge="1" parent="1" source="IPrjEO2tcvVb4j5Hi5IT-61" target="IPrjEO2tcvVb4j5Hi5IT-48">
          <mxGeometry width="160" relative="1" as="geometry">
            <mxPoint x="1155" y="600" as="sourcePoint" />
            <mxPoint x="1110" y="511" as="targetPoint" />
          </mxGeometry>
        </mxCell>
        <mxCell id="IPrjEO2tcvVb4j5Hi5IT-54" value="" style="endArrow=block;dashed=1;endFill=0;endSize=12;html=1;exitX=0.5;exitY=0;exitDx=0;exitDy=0;" edge="1" parent="1" source="IPrjEO2tcvVb4j5Hi5IT-49">
          <mxGeometry width="160" relative="1" as="geometry">
            <mxPoint x="1175" y="620" as="sourcePoint" />
            <mxPoint x="810" y="500" as="targetPoint" />
          </mxGeometry>
        </mxCell>
        <mxCell id="IPrjEO2tcvVb4j5Hi5IT-55" value="ListeMemoireRevueDAO" style="swimlane;fontStyle=1;align=center;verticalAlign=top;childLayout=stackLayout;horizontal=1;startSize=26;horizontalStack=0;resizeParent=1;resizeParentMax=0;resizeLast=0;collapsible=1;marginBottom=0;" vertex="1" parent="1">
          <mxGeometry x="1180" y="580" width="210" height="34" as="geometry" />
        </mxCell>
        <mxCell id="IPrjEO2tcvVb4j5Hi5IT-56" value="" style="line;strokeWidth=1;fillColor=none;align=left;verticalAlign=middle;spacingTop=-1;spacingLeft=3;spacingRight=3;rotatable=0;labelPosition=right;points=[];portConstraint=eastwest;" vertex="1" parent="IPrjEO2tcvVb4j5Hi5IT-55">
          <mxGeometry y="26" width="210" height="8" as="geometry" />
        </mxCell>
        <mxCell id="IPrjEO2tcvVb4j5Hi5IT-58" value="Extends" style="endArrow=block;endSize=16;endFill=0;html=1;exitX=0.5;exitY=0;exitDx=0;exitDy=0;entryX=0.15;entryY=1.038;entryDx=0;entryDy=0;entryPerimeter=0;" edge="1" parent="1" source="IPrjEO2tcvVb4j5Hi5IT-34" target="IPrjEO2tcvVb4j5Hi5IT-2">
          <mxGeometry width="160" relative="1" as="geometry">
            <mxPoint x="280" y="360" as="sourcePoint" />
            <mxPoint x="630" y="181" as="targetPoint" />
          </mxGeometry>
        </mxCell>
        <mxCell id="IPrjEO2tcvVb4j5Hi5IT-59" value="Extends" style="endArrow=block;endSize=16;endFill=0;html=1;exitX=0.5;exitY=0;exitDx=0;exitDy=0;entryX=0.813;entryY=0.962;entryDx=0;entryDy=0;entryPerimeter=0;" edge="1" parent="1" source="IPrjEO2tcvVb4j5Hi5IT-39" target="IPrjEO2tcvVb4j5Hi5IT-2">
          <mxGeometry width="160" relative="1" as="geometry">
            <mxPoint x="740" y="380" as="sourcePoint" />
            <mxPoint x="924" y="204.98800000000006" as="targetPoint" />
          </mxGeometry>
        </mxCell>
        <mxCell id="IPrjEO2tcvVb4j5Hi5IT-60" value="Extends" style="endArrow=block;endSize=16;endFill=0;html=1;exitX=0.5;exitY=0;exitDx=0;exitDy=0;entryX=1;entryY=0.5;entryDx=0;entryDy=0;" edge="1" parent="1" source="IPrjEO2tcvVb4j5Hi5IT-44" target="IPrjEO2tcvVb4j5Hi5IT-2">
          <mxGeometry width="160" relative="1" as="geometry">
            <mxPoint x="750" y="390" as="sourcePoint" />
            <mxPoint x="934" y="214.98800000000006" as="targetPoint" />
          </mxGeometry>
        </mxCell>
        <mxCell id="IPrjEO2tcvVb4j5Hi5IT-61" value="MySQLClientDAO" style="swimlane;fontStyle=1;align=center;verticalAlign=top;childLayout=stackLayout;horizontal=1;startSize=26;horizontalStack=0;resizeParent=1;resizeParentMax=0;resizeLast=0;collapsible=1;marginBottom=0;" vertex="1" parent="1">
          <mxGeometry x="1660" y="580" width="210" height="34" as="geometry" />
        </mxCell>
        <mxCell id="IPrjEO2tcvVb4j5Hi5IT-62" value="" style="line;strokeWidth=1;fillColor=none;align=left;verticalAlign=middle;spacingTop=-1;spacingLeft=3;spacingRight=3;rotatable=0;labelPosition=right;points=[];portConstraint=eastwest;" vertex="1" parent="IPrjEO2tcvVb4j5Hi5IT-61">
          <mxGeometry y="26" width="210" height="8" as="geometry" />
        </mxCell>
        <mxCell id="IPrjEO2tcvVb4j5Hi5IT-63" value="{ abstrait }&#xa;DAOFactory" style="swimlane;fontStyle=1;align=center;verticalAlign=top;childLayout=stackLayout;horizontal=1;startSize=40;horizontalStack=0;resizeParent=1;resizeParentMax=0;resizeLast=0;collapsible=1;marginBottom=0;" vertex="1" parent="1">
          <mxGeometry x="860" y="730" width="160" height="144" as="geometry" />
        </mxCell>
        <mxCell id="IPrjEO2tcvVb4j5Hi5IT-64" value="+ getById(id : int): T" style="text;strokeColor=none;fillColor=none;align=left;verticalAlign=top;spacingLeft=4;spacingRight=4;overflow=hidden;rotatable=0;points=[[0,0.5],[1,0.5]];portConstraint=eastwest;" vertex="1" parent="IPrjEO2tcvVb4j5Hi5IT-63">
          <mxGeometry y="40" width="160" height="26" as="geometry" />
        </mxCell>
        <mxCell id="IPrjEO2tcvVb4j5Hi5IT-65" value="+ create(objet : T)" style="text;strokeColor=none;fillColor=none;align=left;verticalAlign=top;spacingLeft=4;spacingRight=4;overflow=hidden;rotatable=0;points=[[0,0.5],[1,0.5]];portConstraint=eastwest;" vertex="1" parent="IPrjEO2tcvVb4j5Hi5IT-63">
          <mxGeometry y="66" width="160" height="26" as="geometry" />
        </mxCell>
        <mxCell id="IPrjEO2tcvVb4j5Hi5IT-66" value="+ delete(objet : T)" style="text;strokeColor=none;fillColor=none;align=left;verticalAlign=top;spacingLeft=4;spacingRight=4;overflow=hidden;rotatable=0;points=[[0,0.5],[1,0.5]];portConstraint=eastwest;" vertex="1" parent="IPrjEO2tcvVb4j5Hi5IT-63">
          <mxGeometry y="92" width="160" height="26" as="geometry" />
        </mxCell>
        <mxCell id="IPrjEO2tcvVb4j5Hi5IT-67" value="+ update(objet : T)" style="text;strokeColor=none;fillColor=none;align=left;verticalAlign=top;spacingLeft=4;spacingRight=4;overflow=hidden;rotatable=0;points=[[0,0.5],[1,0.5]];portConstraint=eastwest;" vertex="1" parent="IPrjEO2tcvVb4j5Hi5IT-63">
          <mxGeometry y="118" width="160" height="26" as="geometry" />
        </mxCell>
      </root>
    </mxGraphModel>
  </diagram>
</mxfile>
